C:\Users\Nicos\Documents\OpenSimProjects\SprintingProject\Study1\PredictiveResults\IC_pred_Sprinting_optimum_26-October-2023__23-37-47_p02_maxVel_01___IKTD_Minus_4_GRF.mot
version=1
nRows=4
nColumns=127
inDegrees=yes
endheader
time	ground_force_vx	ground_force_vy	ground_force_vz	ground_force_px	ground_force_py	ground_force_pz	ground_torque_x	ground_torque_y	ground_torque_z	1_ground_force_vx	1_ground_force_vy	1_ground_force_vz	1_ground_force_px	1_ground_force_py	1_ground_force_pz	1_ground_torque_x	1_ground_torque_y	1_ground_torque_z	2_ground_force_vx	2_ground_force_vy	2_ground_force_vz	2_ground_force_px	2_ground_force_py	2_ground_force_pz	2_ground_torque_x	2_ground_torque_y	2_ground_torque_z	3_ground_force_vx	3_ground_force_vy	3_ground_force_vz	3_ground_force_px	3_ground_force_py	3_ground_force_pz	3_ground_torque_x	3_ground_torque_y	3_ground_torque_z	4_ground_force_vx	4_ground_force_vy	4_ground_force_vz	4_ground_force_px	4_ground_force_py	4_ground_force_pz	4_ground_torque_x	4_ground_torque_y	4_ground_torque_z	5_ground_force_vx	5_ground_force_vy	5_ground_force_vz	5_ground_force_px	5_ground_force_py	5_ground_force_pz	5_ground_torque_x	5_ground_torque_y	5_ground_torque_z	6_ground_force_vx	6_ground_force_vy	6_ground_force_vz	6_ground_force_px	6_ground_force_py	6_ground_force_pz	6_ground_torque_x	6_ground_torque_y	6_ground_torque_z	7_ground_force_vx	7_ground_force_vy	7_ground_force_vz	7_ground_force_px	7_ground_force_py	7_ground_force_pz	7_ground_torque_x	7_ground_torque_y	7_ground_torque_z	8_ground_force_vx	8_ground_force_vy	8_ground_force_vz	8_ground_force_px	8_ground_force_py	8_ground_force_pz	8_ground_torque_x	8_ground_torque_y	8_ground_torque_z	9_ground_force_vx	9_ground_force_vy	9_ground_force_vz	9_ground_force_px	9_ground_force_py	9_ground_force_pz	9_ground_torque_x	9_ground_torque_y	9_ground_torque_z	10_ground_force_vx	10_ground_force_vy	10_ground_force_vz	10_ground_force_px	10_ground_force_py	10_ground_force_pz	10_ground_torque_x	10_ground_torque_y	10_ground_torque_z	11_ground_force_vx	11_ground_force_vy	11_ground_force_vz	11_ground_force_px	11_ground_force_py	11_ground_force_pz	11_ground_torque_x	11_ground_torque_y	11_ground_torque_z	12_ground_force_vx	12_ground_force_vy	12_ground_force_vz	12_ground_force_px	12_ground_force_py	12_ground_force_pz	12_ground_torque_x	12_ground_torque_y	12_ground_torque_z	13_ground_force_vx	13_ground_force_vy	13_ground_force_vz	13_ground_force_px	13_ground_force_py	13_ground_force_pz	13_ground_torque_x	13_ground_torque_y	13_ground_torque_z
0.056000	-73.635991	39.338817	14.041958	0.357649	-0.001770	0.449210	0.000000	0.000000	0.000000	-0.886514	0.481469	0.174803	0.314177	0.004734	0.469414	0.000000	0.000000	0.000000	-0.019668	0.011242	0.005198	0.287577	0.008582	0.462973	0.000000	0.000000	0.000000	-0.297304	0.167297	0.078564	0.290752	0.005856	0.441140	0.000000	0.000000	0.000000	-0.000000	0.000000	0.000000	0.203411	0.019747	0.491997	0.000000	0.000000	0.000000	-0.002055	0.001174	0.000574	0.258372	0.010745	0.457646	0.000000	0.000000	0.000000	-0.000000	0.000000	0.000000	0.141554	0.019397	0.436335	0.000000	0.000000	0.000000	-0.000000	0.000000	0.000000	-0.463442	0.213614	0.127967	0.000000	0.000000	0.000000	-0.000000	0.000000	0.000000	-0.447808	0.236084	0.113714	0.000000	0.000000	0.000000	-0.000000	0.000000	0.000000	-0.439782	0.248438	0.122727	0.000000	0.000000	0.000000	-0.000000	0.000000	0.000000	-0.447429	0.245823	0.143479	0.000000	0.000000	0.000000	-0.000000	0.000000	0.000000	-0.414679	0.291628	0.104472	0.000000	0.000000	0.000000	-0.000000	0.000000	0.000000	-0.436047	0.262692	0.131291	0.000000	0.000000	0.000000	-0.000000	0.000000	0.000000	-0.421104	0.319709	0.165544	0.000000	0.000000	0.000000
0.056647	-109.026284	58.905375	18.608873	0.360907	-0.002533	0.448677	0.000000	0.000000	0.000000	-2.039534	1.121218	0.367834	0.317324	0.003767	0.468902	0.000000	0.000000	0.000000	-0.056205	0.032357	0.013626	0.290601	0.007539	0.462396	0.000000	0.000000	0.000000	-0.715907	0.405547	0.173183	0.293847	0.004909	0.440527	0.000000	0.000000	0.000000	-0.000000	0.000000	0.000000	0.206281	0.018415	0.491413	0.000000	0.000000	0.000000	-0.006353	0.003656	0.001640	0.261391	0.009665	0.457038	0.000000	0.000000	0.000000	-0.000001	0.000000	0.000000	0.144551	0.018167	0.435607	0.000000	0.000000	0.000000	-0.000000	0.000000	0.000000	-0.451637	0.213368	0.127386	0.000000	0.000000	0.000000	-0.000000	0.000000	0.000000	-0.436241	0.235887	0.113182	0.000000	0.000000	0.000000	-0.000000	0.000000	0.000000	-0.428441	0.248300	0.122286	0.000000	0.000000	0.000000	-0.000000	0.000000	0.000000	-0.436117	0.245660	0.143015	0.000000	0.000000	0.000000	-0.000000	0.000000	0.000000	-0.403719	0.291556	0.104139	0.000000	0.000000	0.000000	-0.000000	0.000000	0.000000	-0.424870	0.262561	0.130873	0.000000	0.000000	0.000000	-0.000000	0.000000	0.000000	-0.410586	0.319605	0.165220	0.000000	0.000000	0.000000
0.058693	-232.889876	131.744449	15.686916	0.370864	-0.004778	0.447635	0.000000	0.000000	0.000000	-13.242838	7.646100	1.165653	0.326919	0.000905	0.467808	0.000000	0.000000	0.000000	-1.059185	0.639528	0.163812	0.299830	0.004412	0.461035	0.000000	0.000000	0.000000	-6.934160	4.106062	1.055750	0.303317	0.002034	0.439087	0.000000	0.000000	0.000000	-0.000038	0.000024	0.000008	0.214991	0.014390	0.489827	0.000000	0.000000	0.000000	-0.167585	0.101096	0.029728	0.270604	0.006388	0.455535	0.000000	0.000000	0.000000	-0.000043	0.000026	0.000012	0.153703	0.014295	0.433534	0.000000	0.000000	0.000000	-0.000000	0.000000	0.000000	-0.414392	0.212594	0.125614	0.000000	0.000000	0.000000	-0.000000	0.000000	0.000000	-0.399702	0.235255	0.111568	0.000000	0.000000	0.000000	-0.000000	0.000000	0.000000	-0.392549	0.247810	0.120898	0.000000	0.000000	0.000000	-0.000000	0.000000	0.000000	-0.400313	0.245095	0.141555	0.000000	0.000000	0.000000	-0.000000	0.000000	0.000000	-0.369040	0.291268	0.103075	0.000000	0.000000	0.000000	-0.000000	0.000000	0.000000	-0.389498	0.262091	0.129553	0.000000	0.000000	0.000000	-0.000000	0.000000	0.000000	-0.377295	0.319215	0.164173	0.000000	0.000000	0.000000
0.060176	-318.182865	188.560688	-5.633752	0.377670	-0.006250	0.447502	0.000000	0.000000	0.000000	-39.215033	23.766657	0.386729	0.333447	-0.000996	0.467532	0.000000	0.000000	0.000000	-5.503691	3.516133	0.503931	0.306075	0.002278	0.460480	0.000000	0.000000	0.000000	-19.182143	11.978899	1.689696	0.309757	0.000036	0.438506	0.000000	0.000000	0.000000	-0.000690	0.000460	0.000126	0.220838	0.011640	0.488920	0.000000	0.000000	0.000000	-1.298031	0.827734	0.157243	0.276845	0.004125	0.454829	0.000000	0.000000	0.000000	-0.000841	0.000533	0.000200	0.159922	0.011511	0.432225	0.000000	0.000000	0.000000	-0.000000	0.000000	0.000000	-0.387453	0.212033	0.124384	0.000000	0.000000	0.000000	-0.000000	0.000000	0.000000	-0.373235	0.234788	0.110458	0.000000	0.000000	0.000000	-0.000000	0.000000	0.000000	-0.366485	0.247407	0.119895	0.000000	0.000000	0.000000	-0.000000	0.000000	0.000000	-0.374309	0.244637	0.140501	0.000000	0.000000	0.000000	-0.000000	0.000000	0.000000	-0.343862	0.291005	0.102295	0.000000	0.000000	0.000000	-0.000000	0.000000	0.000000	-0.363811	0.261700	0.128595	0.000000	0.000000	0.000000	-0.000000	0.000000	0.000000	-0.353117	0.318872	0.163394	0.000000	0.000000	0.000000
